<svg width="75" height="38" viewBox="0 0 75 38" fill="none" xmlns="http://www.w3.org/2000/svg">
<path d="M73.7929 0.5L37.5 36.7929L1.20711 0.5H14.6789C14.7557 0.665456 14.8646 0.896612 15.0041 1.18467C15.3045 1.80534 15.7472 2.69055 16.3173 3.75219C17.457 5.8743 19.1091 8.70703 21.1572 11.5427C23.2032 14.3757 25.6566 17.2289 28.4028 19.3781C31.147 21.5258 34.2221 23 37.5 23C40.7779 23 43.853 21.5258 46.5972 19.3781C49.3434 17.2289 51.7968 14.3757 53.8428 11.5427C55.8909 8.70703 57.543 5.8743 58.6827 3.75219C59.2528 2.69055 59.6954 1.80534 59.9959 1.18467C60.1354 0.896612 60.2443 0.665456 60.3211 0.5H73.7929Z" fill="black" stroke="black"/>
</svg>
