<svg width="226" height="288" viewBox="0 0 226 288" fill="none" xmlns="http://www.w3.org/2000/svg">
<path d="M6.3236 43.966L0 28.4365C18.0543 19.3777 66.5353 -2.31224 114.925 0.201255C174.586 3.30027 208.771 17.8483 225.725 28.0835L219.676 43.966C201.805 33.0247 157.265 16.7895 113 16.7895C70.3294 14.813 22.4533 33.8483 6.3236 43.966Z" fill="white"/>
<path d="M89.4574 27C61.3037 27 24.0219 43.8235 10 52.4118C13.2993 59.8235 26.4964 74.9999 40.2433 80.9999C40.2433 70.8352 44.9173 65.0428 53.7153 62.6471C62.5134 60.2514 80.9343 59.8235 80.9343 59.8235L113.102 287.118L144.17 60.5294C146.37 60.5294 150.769 58.0588 168.09 60.5294C185.411 63 185.411 80.9999 185.411 80.9999C185.411 80.9999 204.932 73.5882 215.38 52.0588C191.845 36.2471 152.602 28.1765 136.472 27L112.827 64.0588C109.528 60.0588 102.215 47.6118 89.4574 27Z" fill="white"/>
</svg>
